<svg xmlns="http://www.w3.org/2000/svg" viewBox="0 0 62.58 24"><defs><style>.cls-1{fill:#333;}</style></defs><g id="Layer_2" data-name="Layer 2"><g id="Head"><path class="cls-1" d="M14.69.28v13.8a6.43,6.43,0,0,1-1.81,4.69A7.25,7.25,0,0,1,8,20.82l-.71,0A7.59,7.59,0,0,1,2,19.05a6.44,6.44,0,0,1-2-5V.28H2.65V14a4.62,4.62,0,0,0,1.21,3.42,4.64,4.64,0,0,0,3.46,1.22,4.67,4.67,0,0,0,3.47-1.21A4.62,4.62,0,0,0,12,14V.28Z"/><path class="cls-1" d="M19.36,20.85V7.05a6.43,6.43,0,0,1,1.81-4.69A7.25,7.25,0,0,1,26,.31l.72,0A7.55,7.55,0,0,1,32,2.08a6.4,6.4,0,0,1,2,4.94V20.85H31.4V7.11a4.62,4.62,0,0,0-1.21-3.42,4.63,4.63,0,0,0-3.45-1.22,4.68,4.68,0,0,0-3.48,1.21,4.61,4.61,0,0,0-1.21,3.41V20.85Z"/><path class="cls-1" d="M42.13,20.57H39.45V.28h2.68Z"/><path class="cls-1" d="M62.51,11.08a12.61,12.61,0,0,1-.93,5.07A7.88,7.88,0,0,1,59,19.47l3.62,2.84L60.76,24l-4.28-3.4a8.55,8.55,0,0,1-2.12.25,7.72,7.72,0,0,1-4.25-1.18,7.81,7.81,0,0,1-2.88-3.36,12.07,12.07,0,0,1-1-5V9.8a12.36,12.36,0,0,1,1-5.17A7.52,7.52,0,0,1,54.33,0a8,8,0,0,1,4.32,1.18,7.66,7.66,0,0,1,2.86,3.41,12.48,12.48,0,0,1,1,5.19ZM59.84,9.77a9.24,9.24,0,0,0-1.43-5.53A4.77,4.77,0,0,0,54.33,2.3a4.69,4.69,0,0,0-4,1.93,8.87,8.87,0,0,0-1.5,5.36v1.49a9.2,9.2,0,0,0,1.45,5.49,5.15,5.15,0,0,0,8.07.12,9.12,9.12,0,0,0,1.46-5.41Z"/></g></g></svg>