<?xml version="1.0" encoding="iso-8859-1"?>
<!-- Generator: Adobe Illustrator 19.0.0, SVG Export Plug-In . SVG Version: 6.00 Build 0)  -->
<svg version="1.1" id="Capa_1" xmlns="http://www.w3.org/2000/svg" xmlns:xlink="http://www.w3.org/1999/xlink" x="0px" y="0px"
	 viewBox="0 0 511.997 511.997" style="enable-background:new 0 0 511.997 511.997;" xml:space="preserve">
<g>
	<g>
		<g>
			<path d="M456.584,106.493l-171.17-98.65c-18.145-10.457-40.687-10.457-58.83,0l-171.171,98.65
				c-18.143,10.456-29.414,29.943-29.414,50.856v197.3c0,20.913,11.271,40.4,29.415,50.855l171.17,98.65
				c18.145,10.457,40.683,10.459,58.83,0l171.171-98.65c18.143-10.456,29.414-29.943,29.414-50.856v-197.3
				C485.999,136.435,474.728,116.948,456.584,106.493z M445.924,354.648c0,6.666-3.593,12.879-9.377,16.212l-171.172,98.65
				c-5.782,3.334-12.969,3.334-18.753,0L75.451,370.86c-5.784-3.333-9.377-9.545-9.377-16.212v-197.3
				c0-6.667,3.593-12.88,9.377-16.213l171.172-98.65c5.78-3.333,12.969-3.334,18.753,0l171.171,98.65
				c5.784,3.334,9.377,9.546,9.377,16.213V354.648z"/>
			<path d="M336.151,235.997h-60.113v-60.006c0-11.047-8.971-20.002-20.038-20.002c-11.067,0-20.038,8.955-20.038,20.002v60.006
				h-60.113c-11.067,0-20.038,8.955-20.038,20.002c0,11.047,8.971,20.002,20.038,20.002h60.111v60.006
				c0,11.047,8.971,20.002,20.038,20.002c11.067,0,20.038-8.955,20.038-20.002v-60.006h60.113c11.067,0,20.038-8.955,20.038-20.002
				C356.187,244.952,347.216,235.997,336.151,235.997z"/>
		</g>
	</g>
</g>
</svg>